<mxfile host="Electron" modified="2023-07-03T14:44:27.269Z" agent="Mozilla/5.0 (Windows NT 10.0; Win64; x64) AppleWebKit/537.36 (KHTML, like Gecko) draw.io/21.5.1 Chrome/112.0.5615.204 Electron/24.6.0 Safari/537.36" etag="7-DsV-QOhONCZHHvRPRa" version="21.5.1" type="device">
  <diagram name="第 1 页" id="vkmJn8RA8v_ywd7wJG8B">
    <mxGraphModel dx="1036" dy="606" grid="1" gridSize="10" guides="1" tooltips="1" connect="1" arrows="1" fold="1" page="1" pageScale="1" pageWidth="827" pageHeight="1169" math="0" shadow="0">
      <root>
        <mxCell id="0" />
        <mxCell id="1" parent="0" />
        <mxCell id="dchF27bkw9Ur33YywNWU-1" value="客户端" style="rounded=0;whiteSpace=wrap;html=1;fillColor=#dae8fc;strokeColor=#6c8ebf;fontSize=16;" parent="1" vertex="1">
          <mxGeometry x="20" y="20" width="80" height="360" as="geometry" />
        </mxCell>
        <mxCell id="dchF27bkw9Ur33YywNWU-2" value="后端" style="rounded=0;whiteSpace=wrap;html=1;fillColor=#dae8fc;strokeColor=#6c8ebf;fontSize=16;" parent="1" vertex="1">
          <mxGeometry x="510" y="20" width="80" height="360" as="geometry" />
        </mxCell>
        <mxCell id="dchF27bkw9Ur33YywNWU-3" value="" style="endArrow=classic;html=1;rounded=0;" parent="1" edge="1">
          <mxGeometry width="50" height="50" relative="1" as="geometry">
            <mxPoint x="250" y="74.71000000000001" as="sourcePoint" />
            <mxPoint x="490" y="74.71000000000001" as="targetPoint" />
          </mxGeometry>
        </mxCell>
        <mxCell id="dchF27bkw9Ur33YywNWU-4" value="user/login_or_register&lt;br&gt;创建用户/登录" style="edgeLabel;html=1;align=center;verticalAlign=middle;resizable=0;points=[];" parent="dchF27bkw9Ur33YywNWU-3" vertex="1" connectable="0">
          <mxGeometry x="-0.0131" y="1" relative="1" as="geometry">
            <mxPoint as="offset" />
          </mxGeometry>
        </mxCell>
        <mxCell id="dchF27bkw9Ur33YywNWU-6" value="" style="endArrow=classic;html=1;rounded=0;" parent="1" edge="1">
          <mxGeometry width="50" height="50" relative="1" as="geometry">
            <mxPoint x="250" y="140.00000000000006" as="sourcePoint" />
            <mxPoint x="490" y="140.00000000000006" as="targetPoint" />
          </mxGeometry>
        </mxCell>
        <mxCell id="dchF27bkw9Ur33YywNWU-7" value="user/validate&lt;br&gt;验证登录（使用token）" style="edgeLabel;html=1;align=center;verticalAlign=middle;resizable=0;points=[];" parent="dchF27bkw9Ur33YywNWU-6" vertex="1" connectable="0">
          <mxGeometry x="-0.0131" y="1" relative="1" as="geometry">
            <mxPoint as="offset" />
          </mxGeometry>
        </mxCell>
        <mxCell id="dchF27bkw9Ur33YywNWU-9" value="" style="endArrow=classic;html=1;rounded=0;" parent="1" edge="1">
          <mxGeometry width="50" height="50" relative="1" as="geometry">
            <mxPoint x="490" y="95" as="sourcePoint" />
            <mxPoint x="250" y="95" as="targetPoint" />
          </mxGeometry>
        </mxCell>
        <mxCell id="dchF27bkw9Ur33YywNWU-10" value="用户token" style="edgeLabel;html=1;align=center;verticalAlign=middle;resizable=0;points=[];" parent="dchF27bkw9Ur33YywNWU-9" vertex="1" connectable="0">
          <mxGeometry x="-0.0131" y="1" relative="1" as="geometry">
            <mxPoint as="offset" />
          </mxGeometry>
        </mxCell>
        <mxCell id="dchF27bkw9Ur33YywNWU-11" value="" style="endArrow=classic;html=1;rounded=0;" parent="1" edge="1">
          <mxGeometry width="50" height="50" relative="1" as="geometry">
            <mxPoint x="490" y="160" as="sourcePoint" />
            <mxPoint x="250" y="160" as="targetPoint" />
          </mxGeometry>
        </mxCell>
        <mxCell id="dchF27bkw9Ur33YywNWU-12" value="用户id和用户名" style="edgeLabel;html=1;align=center;verticalAlign=middle;resizable=0;points=[];" parent="dchF27bkw9Ur33YywNWU-11" vertex="1" connectable="0">
          <mxGeometry x="-0.0131" y="1" relative="1" as="geometry">
            <mxPoint as="offset" />
          </mxGeometry>
        </mxCell>
        <mxCell id="dchF27bkw9Ur33YywNWU-14" value="" style="endArrow=classic;html=1;rounded=0;" parent="1" edge="1">
          <mxGeometry width="50" height="50" relative="1" as="geometry">
            <mxPoint x="250" y="200.00000000000006" as="sourcePoint" />
            <mxPoint x="490" y="200.00000000000006" as="targetPoint" />
          </mxGeometry>
        </mxCell>
        <mxCell id="dchF27bkw9Ur33YywNWU-15" value="project/get_all_owned&lt;br&gt;使用token" style="edgeLabel;html=1;align=center;verticalAlign=middle;resizable=0;points=[];" parent="dchF27bkw9Ur33YywNWU-14" vertex="1" connectable="0">
          <mxGeometry x="-0.0131" y="1" relative="1" as="geometry">
            <mxPoint as="offset" />
          </mxGeometry>
        </mxCell>
        <mxCell id="dchF27bkw9Ur33YywNWU-16" value="" style="endArrow=classic;html=1;rounded=0;" parent="1" edge="1">
          <mxGeometry width="50" height="50" relative="1" as="geometry">
            <mxPoint x="490" y="220" as="sourcePoint" />
            <mxPoint x="250" y="220" as="targetPoint" />
          </mxGeometry>
        </mxCell>
        <mxCell id="dchF27bkw9Ur33YywNWU-17" value="用户所有项目" style="edgeLabel;html=1;align=center;verticalAlign=middle;resizable=0;points=[];" parent="dchF27bkw9Ur33YywNWU-16" vertex="1" connectable="0">
          <mxGeometry x="-0.0131" y="1" relative="1" as="geometry">
            <mxPoint as="offset" />
          </mxGeometry>
        </mxCell>
        <mxCell id="dchF27bkw9Ur33YywNWU-18" value="&lt;font style=&quot;font-size: 10px;&quot;&gt;本地没有的：添加&lt;br&gt;本地已有的：使用更新的&lt;/font&gt;" style="rounded=1;whiteSpace=wrap;html=1;" parent="1" vertex="1">
          <mxGeometry x="110" y="210" width="130" height="40" as="geometry" />
        </mxCell>
        <mxCell id="dchF27bkw9Ur33YywNWU-21" value="" style="endArrow=classic;html=1;rounded=0;" parent="1" edge="1">
          <mxGeometry width="50" height="50" relative="1" as="geometry">
            <mxPoint x="250" y="351.00000000000006" as="sourcePoint" />
            <mxPoint x="490" y="351.00000000000006" as="targetPoint" />
          </mxGeometry>
        </mxCell>
        <mxCell id="dchF27bkw9Ur33YywNWU-22" value="project/create_or_update&lt;br&gt;token+项目信息&lt;br&gt;创建/更新曲谱项目" style="edgeLabel;html=1;align=center;verticalAlign=middle;resizable=0;points=[];" parent="dchF27bkw9Ur33YywNWU-21" vertex="1" connectable="0">
          <mxGeometry x="-0.0131" y="1" relative="1" as="geometry">
            <mxPoint as="offset" />
          </mxGeometry>
        </mxCell>
        <mxCell id="dchF27bkw9Ur33YywNWU-26" value="" style="endArrow=classic;html=1;rounded=0;" parent="1" edge="1">
          <mxGeometry width="50" height="50" relative="1" as="geometry">
            <mxPoint x="250" y="271.00000000000006" as="sourcePoint" />
            <mxPoint x="490" y="271.00000000000006" as="targetPoint" />
          </mxGeometry>
        </mxCell>
        <mxCell id="dchF27bkw9Ur33YywNWU-27" value="project/get&lt;br&gt;token+项目code&lt;br&gt;获取项目信息" style="edgeLabel;html=1;align=center;verticalAlign=middle;resizable=0;points=[];" parent="dchF27bkw9Ur33YywNWU-26" vertex="1" connectable="0">
          <mxGeometry x="-0.0131" y="1" relative="1" as="geometry">
            <mxPoint as="offset" />
          </mxGeometry>
        </mxCell>
        <mxCell id="dchF27bkw9Ur33YywNWU-28" value="" style="endArrow=classic;html=1;rounded=0;" parent="1" edge="1">
          <mxGeometry width="50" height="50" relative="1" as="geometry">
            <mxPoint x="490" y="300" as="sourcePoint" />
            <mxPoint x="250" y="300" as="targetPoint" />
          </mxGeometry>
        </mxCell>
        <mxCell id="dchF27bkw9Ur33YywNWU-29" value="项目信息" style="edgeLabel;html=1;align=center;verticalAlign=middle;resizable=0;points=[];" parent="dchF27bkw9Ur33YywNWU-28" vertex="1" connectable="0">
          <mxGeometry x="-0.0131" y="1" relative="1" as="geometry">
            <mxPoint as="offset" />
          </mxGeometry>
        </mxCell>
        <mxCell id="sVA2Uoj7j3uFHw16ibDz-1" value="&lt;font style=&quot;font-size: 10px;&quot;&gt;使用更新的，如果本地更新，立刻调用一次update&lt;/font&gt;" style="rounded=1;whiteSpace=wrap;html=1;" vertex="1" parent="1">
          <mxGeometry x="110" y="280" width="130" height="40" as="geometry" />
        </mxCell>
      </root>
    </mxGraphModel>
  </diagram>
</mxfile>
